# xmcd
#
# Track frame offsets: 
#        150
#        24304
#        37045
#        57827
#        74074
#        90534
#        107055
#        121488
#        138672
#        152225
#        170284
#        187834
#        205040
#        219902
#        232066
#
# Disc length: 3294 seconds
#
# Revision: 0
# Processed by: cddbd v1.5.2PL0 Copyright (c) Steve Scherf et al.
# Submitted via: ExactAudioCopyFreeDBPlugin 1.0
#
DISCID=d20cdc0f
DTITLE=CDS制作 - TEST-CD-24A 【中国民乐民歌】
DYEAR=2013
DGENRE=Acid
TTITLE0=枉凝眉(胡芦丝)
TTITLE1=军港之夜(二胡)
TTITLE2=弯弯的月亮(古筝二胡笛子)
TTITLE3=赞歌(笛子)
TTITLE4=月亮代表我的心(古筝)
TTITLE5=敢问路在何方(笛子)
TTITLE6=回娘家(三弦)
TTITLE7=父老乡亲(二胡琵琶)
TTITLE8=阿里山的姑娘(巴乌琵琶)
TTITLE9=妹妹找哥泪花流(琵琶)
TTITLE10=青藏高原(笛子)
TTITLE11=甜蜜蜜(胡芦丝)
TTITLE12=吐鲁番的葡萄熟了(琵琶)
TTITLE13=阿佤人民唱新歌(胡芦丝)
TTITLE14=弹起我心爱的土琵琶(琵琶)
EXTD=
EXTT0=
EXTT1=
EXTT2=
EXTT3=
EXTT4=
EXTT5=
EXTT6=
EXTT7=
EXTT8=
EXTT9=
EXTT10=
EXTT11=
EXTT12=
EXTT13=
EXTT14=
PLAYORDER=
